<svg width="96" height="96" xmlns="http://www.w3.org/2000/svg" xmlns:xlink="http://www.w3.org/1999/xlink" xml:space="preserve" overflow="hidden"><g transform="translate(-461 -398)"><path d="M544 419 474 419C471.791 419 470 420.791 470 423L470 469C470 471.209 471.791 473 474 473L544 473C546.209 473 548 471.209 548 469L548 423C548 420.791 546.209 419 544 419ZM474 421 544 421C545.105 421 546 421.895 546 423L546 440 472 440 472 423C472 421.895 472.895 421 474 421ZM546 442 546 450 472 450 472 442ZM544 471 474 471C472.895 471 472 470.105 472 469L472 452 546 452 546 469C546 470.105 545.105 471 544 471Z"/><path d="M481 460 497 460 497 462 481 462Z"/><path d="M501 460 509 460 509 462 501 462Z"/></g></svg>